ffmpeg started on 2025-06-05 at 20:27:53
Report written to "D:\Convert\FFMetrics\reports\ssim_report-6.txt"
Log level: 32
Command line:
ffmpeg -hide_banner -nostdin -i "G:\\\xc0\xed\xe8\xec\xe5\\\xce\xed\xe3\xee\xe8\xed\xe3\xe8\\!_36_\xce\xf1\xe5\xed\xfc_2024\\DreamCast\\\xcd\xe5\xe3\xe0\xf2\xe8\xe2\xed\xfb\xe9 \xef\xee\xe7\xe8\xf2\xe8\xe2\xed\xfb\xe9 \xf0\xfb\xe1\xe0\xea\\[DC] NegaPosi Angler - 09_Telegram_HEVC.mkv" -i "G:\\\xc0\xed\xe8\xec\xe5\\\xce\xed\xe3\xee\xe8\xed\xe3\xe8\\!_36_\xce\xf1\xe5\xed\xfc_2024\\DreamCast\\\xcd\xe5\xe3\xe0\xf2\xe8\xe2\xed\xfb\xe9 \xef\xee\xe7\xe8\xf2\xe8\xe2\xed\xfb\xe9 \xf0\xfb\xe1\xe0\xea\\[DC] NegaPosi Angler - 09_Telegram.mp4" -lavfi "[0:v]settb=AVTB,setpts=PTS-STARTPTS,format=pix_fmts=yuv420p10,fps=24000/1001,scale=1920:1080:flags=bicubic[main];[1:v]settb=AVTB,setpts=PTS-STARTPTS,format=pix_fmts=yuv420p,fps=24000/1001,scale=1920:1080:flags=bicubic[ref];[main][ref]ssim=eof_action=endall:stats_file='D\\:/Convert/FFMetrics/logs/ssim_logfile-6.txt'" -f null -
Input #0, matroska,webm, from 'G:\Аниме\Онгоинги\!_36_Осень_2024\DreamCast\Негативный позитивный рыбак\[DC] NegaPosi Angler - 09_Telegram_HEVC.mkv':
  Metadata:
    COMPATIBLE_BRANDS: isomiso2avc1mp41
    MAJOR_BRAND     : isom
    MINOR_VERSION   : 512
    ENCODER         : Lavf61.7.100
  Duration: 00:23:46.69, start: -0.021000, bitrate: 973 kb/s
  Stream #0:0: Video: hevc (Main 10), yuv420p10le(tv, bt709, progressive), 1920x1080 [SAR 1:1 DAR 16:9], 23.98 fps, 23.98 tbr, 1k tbn (default)
      Metadata:
        HANDLER_NAME    : VideoHandler
        VENDOR_ID       : [0][0][0][0]
        ENCODER         : Lavc61.19.100 libx265
        BPS             : 775746
        DURATION        : 00:23:46.508708333
        NUMBER_OF_FRAMES: 34202
        NUMBER_OF_BYTES : 138326020
        _STATISTICS_WRITING_APP: mkvpropedit v66.0.0 ('Josie') 64-bit
        _STATISTICS_WRITING_DATE_UTC: 2025-05-31 13:56:08
        _STATISTICS_TAGS: BPS DURATION NUMBER_OF_FRAMES NUMBER_OF_BYTES
  Stream #0:1: Audio: aac (LC), 48000 Hz, stereo, fltp (default)
      Metadata:
        HANDLER_NAME    : SoundHandler
        VENDOR_ID       : [0][0][0][0]
        ENCODER         : Lavc61.19.100 aac
        BPS             : 193319
        DURATION        : 00:23:46.688000000
        NUMBER_OF_FRAMES: 66877
        NUMBER_OF_BYTES : 34475783
        _STATISTICS_WRITING_APP: mkvpropedit v66.0.0 ('Josie') 64-bit
        _STATISTICS_WRITING_DATE_UTC: 2025-05-31 13:56:08
        _STATISTICS_TAGS: BPS DURATION NUMBER_OF_FRAMES NUMBER_OF_BYTES
Input #1, mov,mp4,m4a,3gp,3g2,mj2, from 'G:\Аниме\Онгоинги\!_36_Осень_2024\DreamCast\Негативный позитивный рыбак\[DC] NegaPosi Angler - 09_Telegram.mp4':
  Metadata:
    major_brand     : isom
    minor_version   : 512
    compatible_brands: isomiso2avc1mp41
    encoder         : Lavf61.1.100
  Duration: 00:23:46.63, start: 0.000000, bitrate: 3755 kb/s
  Stream #1:0[0x1](und): Video: h264 (High) (avc1 / 0x31637661), yuv420p(tv, bt709, progressive), 1920x1080 [SAR 1:1 DAR 16:9], 3607 kb/s, 23.98 fps, 23.98 tbr, 24k tbn (default)
      Metadata:
        handler_name    : VideoHandler
        vendor_id       : [0][0][0][0]
        encoder         : Lavc61.3.100 h264_qsv
  Stream #1:1[0x2](und): Audio: aac (HE-AACv2) (mp4a / 0x6134706D), 48000 Hz, stereo, fltp, 144 kb/s (default)
      Metadata:
        handler_name    : SoundHandler
        vendor_id       : [0][0][0][0]
Stream mapping:
  Stream #0:0 (hevc) -> settb:default
  Stream #1:0 (h264) -> settb:default
  ssim:default -> Stream #0:0 (wrapped_avframe)
  Stream #0:1 -> #0:1 (aac (native) -> pcm_s16le (native))
Output #0, null, to 'pipe:':
  Metadata:
    COMPATIBLE_BRANDS: isomiso2avc1mp41
    MAJOR_BRAND     : isom
    MINOR_VERSION   : 512
    encoder         : Lavf61.7.100
  Stream #0:0: Video: wrapped_avframe, yuv420p10le(tv, bt709, progressive), 1920x1080 [SAR 1:1 DAR 16:9], q=2-31, 200 kb/s, 23.98 fps, 23.98 tbn
      Metadata:
        encoder         : Lavc61.19.100 wrapped_avframe
  Stream #0:1: Audio: pcm_s16le, 48000 Hz, stereo, s16, 1536 kb/s (default)
      Metadata:
        HANDLER_NAME    : SoundHandler
        VENDOR_ID       : [0][0][0][0]
        _STATISTICS_TAGS: BPS DURATION NUMBER_OF_FRAMES NUMBER_OF_BYTES
        BPS             : 193319
        DURATION        : 00:23:46.688000000
        NUMBER_OF_FRAMES: 66877
        NUMBER_OF_BYTES : 34475783
        _STATISTICS_WRITING_APP: mkvpropedit v66.0.0 ('Josie') 64-bit
        _STATISTICS_WRITING_DATE_UTC: 2025-05-31 13:56:08
        encoder         : Lavc61.19.100 pcm_s16le
frame=  170 fps=0.0 q=-0.0 size=N/A time=00:00:07.09 bitrate=N/A speed=13.8x    frame=  343 fps=335 q=-0.0 size=N/A time=00:00:14.30 bitrate=N/A speed=  14x    frame=  551 fps=356 q=-0.0 size=N/A time=00:00:22.98 bitrate=N/A speed=14.9x    frame=  786 fps=382 q=-0.0 size=N/A time=00:00:32.78 bitrate=N/A speed=15.9x    frame= 1043 fps=404 q=-0.0 size=N/A time=00:00:43.50 bitrate=N/A speed=16.8x    frame= 1283 fps=415 q=-0.0 size=N/A time=00:00:53.51 bitrate=N/A speed=17.3x    frame= 1535 fps=425 q=-0.0 size=N/A time=00:01:04.02 bitrate=N/A speed=17.7x    frame= 1773 fps=430 q=-0.0 size=N/A time=00:01:13.94 bitrate=N/A speed=17.9x    frame= 2036 fps=438 q=-0.0 size=N/A time=00:01:24.91 bitrate=N/A speed=18.3x    frame= 2257 fps=438 q=-0.0 size=N/A time=00:01:34.13 bitrate=N/A speed=18.3x    frame= 2513 fps=443 q=-0.0 size=N/A time=00:01:44.81 bitrate=N/A speed=18.5x    frame= 2772 fps=448 q=-0.0 size=N/A time=00:01:55.61 bitrate=N/A speed=18.7x    frame= 2985 fps=446 q=-0.0 size=N/A time=00:02:04.49 bitrate=N/A speed=18.6x    frame= 3191 fps=442 q=-0.0 size=N/A time=00:02:13.09 bitrate=N/A speed=18.4x    frame= 3407 fps=441 q=-0.0 size=N/A time=00:02:22.10 bitrate=N/A speed=18.4x    frame= 3564 fps=432 q=-0.0 size=N/A time=00:02:28.64 bitrate=N/A speed=  18x    frame= 3744 fps=427 q=-0.0 size=N/A time=00:02:36.15 bitrate=N/A speed=17.8x    frame= 3924 fps=423 q=-0.0 size=N/A time=00:02:43.66 bitrate=N/A speed=17.6x    frame= 4141 fps=423 q=-0.0 size=N/A time=00:02:52.71 bitrate=N/A speed=17.6x    frame= 4304 fps=417 q=-0.0 size=N/A time=00:02:59.51 bitrate=N/A speed=17.4x    frame= 4502 fps=416 q=-0.0 size=N/A time=00:03:07.77 bitrate=N/A speed=17.3x    frame= 4695 fps=414 q=-0.0 size=N/A time=00:03:15.82 bitrate=N/A speed=17.3x    frame= 4886 fps=412 q=-0.0 size=N/A time=00:03:23.78 bitrate=N/A speed=17.2x    frame= 5088 fps=411 q=-0.0 size=N/A time=00:03:32.21 bitrate=N/A speed=17.1x    frame= 5285 fps=410 q=-0.0 size=N/A time=00:03:40.42 bitrate=N/A speed=17.1x    frame= 5492 fps=410 q=-0.0 size=N/A time=00:03:49.06 bitrate=N/A speed=17.1x    frame= 5746 fps=413 q=-0.0 size=N/A time=00:03:59.65 bitrate=N/A speed=17.2x    frame= 5988 fps=415 q=-0.0 size=N/A time=00:04:09.74 bitrate=N/A speed=17.3x    frame= 6234 fps=417 q=-0.0 size=N/A time=00:04:20.00 bitrate=N/A speed=17.4x    frame= 6495 fps=420 q=-0.0 size=N/A time=00:04:30.89 bitrate=N/A speed=17.5x    frame= 6751 fps=423 q=-0.0 size=N/A time=00:04:41.57 bitrate=N/A speed=17.6x    frame= 6996 fps=424 q=-0.0 size=N/A time=00:04:51.79 bitrate=N/A speed=17.7x    frame= 7212 fps=424 q=-0.0 size=N/A time=00:05:00.80 bitrate=N/A speed=17.7x    frame= 7469 fps=426 q=-0.0 size=N/A time=00:05:11.51 bitrate=N/A speed=17.8x    frame= 7721 fps=428 q=-0.0 size=N/A time=00:05:22.03 bitrate=N/A speed=17.9x    frame= 7963 fps=429 q=-0.0 size=N/A time=00:05:32.12 bitrate=N/A speed=17.9x    frame= 8202 fps=430 q=-0.0 size=N/A time=00:05:42.09 bitrate=N/A speed=17.9x    frame= 8452 fps=432 q=-0.0 size=N/A time=00:05:52.51 bitrate=N/A speed=  18x    frame= 8714 fps=433 q=-0.0 size=N/A time=00:06:03.44 bitrate=N/A speed=18.1x    frame= 8955 fps=434 q=-0.0 size=N/A time=00:06:13.49 bitrate=N/A speed=18.1x    frame= 9231 fps=436 q=-0.0 size=N/A time=00:06:25.00 bitrate=N/A speed=18.2x    frame= 9491 fps=438 q=-0.0 size=N/A time=00:06:35.85 bitrate=N/A speed=18.3x    frame= 9745 fps=439 q=-0.0 size=N/A time=00:06:46.44 bitrate=N/A speed=18.3x    frame=10012 fps=441 q=-0.0 size=N/A time=00:06:57.58 bitrate=N/A speed=18.4x    frame=10226 fps=440 q=-0.0 size=N/A time=00:07:06.50 bitrate=N/A speed=18.4x    frame=10475 fps=441 q=-0.0 size=N/A time=00:07:16.89 bitrate=N/A speed=18.4x    frame=10730 fps=442 q=-0.0 size=N/A time=00:07:27.53 bitrate=N/A speed=18.5x    frame=10965 fps=443 q=-0.0 size=N/A time=00:07:37.33 bitrate=N/A speed=18.5x    frame=11207 fps=443 q=-0.0 size=N/A time=00:07:47.42 bitrate=N/A speed=18.5x    frame=11440 fps=444 q=-0.0 size=N/A time=00:07:57.14 bitrate=N/A speed=18.5x    frame=11690 fps=444 q=-0.0 size=N/A time=00:08:07.57 bitrate=N/A speed=18.5x    frame=11952 fps=446 q=-0.0 size=N/A time=00:08:18.49 bitrate=N/A speed=18.6x    frame=12197 fps=446 q=-0.0 size=N/A time=00:08:28.71 bitrate=N/A speed=18.6x    frame=12448 fps=447 q=-0.0 size=N/A time=00:08:39.18 bitrate=N/A speed=18.6x    frame=12702 fps=448 q=-0.0 size=N/A time=00:08:49.77 bitrate=N/A speed=18.7x    frame=12949 fps=448 q=-0.0 size=N/A time=00:09:00.08 bitrate=N/A speed=18.7x    frame=13166 fps=448 q=-0.0 size=N/A time=00:09:09.13 bitrate=N/A speed=18.7x    frame=13379 fps=447 q=-0.0 size=N/A time=00:09:18.01 bitrate=N/A speed=18.6x    frame=13626 fps=448 q=-0.0 size=N/A time=00:09:28.31 bitrate=N/A speed=18.7x    frame=13879 fps=448 q=-0.0 size=N/A time=00:09:38.86 bitrate=N/A speed=18.7x    frame=14119 fps=449 q=-0.0 size=N/A time=00:09:48.87 bitrate=N/A speed=18.7x    frame=14375 fps=449 q=-0.0 size=N/A time=00:09:59.55 bitrate=N/A speed=18.7x    frame=14602 fps=449 q=-0.0 size=N/A time=00:10:09.02 bitrate=N/A speed=18.7x    frame=14862 fps=450 q=-0.0 size=N/A time=00:10:19.86 bitrate=N/A speed=18.8x    frame=15123 fps=451 q=-0.0 size=N/A time=00:10:30.75 bitrate=N/A speed=18.8x    frame=15372 fps=452 q=-0.0 size=N/A time=00:10:41.14 bitrate=N/A speed=18.8x    frame=15616 fps=452 q=-0.0 size=N/A time=00:10:51.31 bitrate=N/A speed=18.8x    frame=15870 fps=452 q=-0.0 size=N/A time=00:11:01.91 bitrate=N/A speed=18.9x    frame=16137 fps=453 q=-0.0 size=N/A time=00:11:13.04 bitrate=N/A speed=18.9x    frame=16382 fps=454 q=-0.0 size=N/A time=00:11:23.26 bitrate=N/A speed=18.9x    frame=16626 fps=454 q=-0.0 size=N/A time=00:11:33.44 bitrate=N/A speed=18.9x    frame=16867 fps=454 q=-0.0 size=N/A time=00:11:43.49 bitrate=N/A speed=18.9x    frame=17107 fps=454 q=-0.0 size=N/A time=00:11:53.50 bitrate=N/A speed=18.9x    frame=17359 fps=455 q=-0.0 size=N/A time=00:12:04.01 bitrate=N/A speed=  19x    frame=17587 fps=454 q=-0.0 size=N/A time=00:12:13.52 bitrate=N/A speed=  19x    frame=17835 fps=455 q=-0.0 size=N/A time=00:12:23.86 bitrate=N/A speed=  19x    frame=18082 fps=455 q=-0.0 size=N/A time=00:12:34.17 bitrate=N/A speed=  19x    frame=18317 fps=455 q=-0.0 size=N/A time=00:12:43.97 bitrate=N/A speed=  19x    frame=18533 fps=455 q=-0.0 size=N/A time=00:12:52.98 bitrate=N/A speed=  19x    frame=18762 fps=454 q=-0.0 size=N/A time=00:13:02.53 bitrate=N/A speed=  19x    frame=18991 fps=454 q=-0.0 size=N/A time=00:13:12.08 bitrate=N/A speed=  19x    frame=19245 fps=455 q=-0.0 size=N/A time=00:13:22.67 bitrate=N/A speed=  19x    frame=19476 fps=455 q=-0.0 size=N/A time=00:13:32.31 bitrate=N/A speed=  19x    frame=19726 fps=455 q=-0.0 size=N/A time=00:13:42.73 bitrate=N/A speed=  19x    frame=19965 fps=455 q=-0.0 size=N/A time=00:13:52.70 bitrate=N/A speed=  19x    frame=20183 fps=455 q=-0.0 size=N/A time=00:14:01.79 bitrate=N/A speed=  19x    frame=20427 fps=455 q=-0.0 size=N/A time=00:14:11.97 bitrate=N/A speed=  19x    frame=20668 fps=455 q=-0.0 size=N/A time=00:14:22.02 bitrate=N/A speed=  19x    frame=20914 fps=455 q=-0.0 size=N/A time=00:14:32.28 bitrate=N/A speed=  19x    frame=21140 fps=455 q=-0.0 size=N/A time=00:14:41.71 bitrate=N/A speed=  19x    frame=21397 fps=455 q=-0.0 size=N/A time=00:14:52.43 bitrate=N/A speed=  19x    frame=21613 fps=455 q=-0.0 size=N/A time=00:15:01.44 bitrate=N/A speed=  19x    frame=21848 fps=455 q=-0.0 size=N/A time=00:15:11.24 bitrate=N/A speed=  19x    frame=22077 fps=455 q=-0.0 size=N/A time=00:15:20.79 bitrate=N/A speed=  19x    frame=22286 fps=454 q=-0.0 size=N/A time=00:15:29.51 bitrate=N/A speed=  19x    frame=22518 fps=454 q=-0.0 size=N/A time=00:15:39.18 bitrate=N/A speed=  19x    frame=22747 fps=454 q=-0.0 size=N/A time=00:15:48.73 bitrate=N/A speed=18.9x    frame=23001 fps=455 q=-0.0 size=N/A time=00:15:59.33 bitrate=N/A speed=  19x    frame=23262 fps=455 q=-0.0 size=N/A time=00:16:10.21 bitrate=N/A speed=  19x    frame=23530 fps=456 q=-0.0 size=N/A time=00:16:21.39 bitrate=N/A speed=  19x    frame=23791 fps=456 q=-0.0 size=N/A time=00:16:32.28 bitrate=N/A speed=  19x    frame=24055 fps=457 q=-0.0 size=N/A time=00:16:43.29 bitrate=N/A speed=19.1x    frame=24287 fps=457 q=-0.0 size=N/A time=00:16:52.97 bitrate=N/A speed=  19x    frame=24515 fps=457 q=-0.0 size=N/A time=00:17:02.47 bitrate=N/A speed=  19x    frame=24752 fps=457 q=-0.0 size=N/A time=00:17:12.36 bitrate=N/A speed=  19x    frame=24995 fps=457 q=-0.0 size=N/A time=00:17:22.49 bitrate=N/A speed=19.1x    frame=25232 fps=457 q=-0.0 size=N/A time=00:17:32.38 bitrate=N/A speed=19.1x    frame=25490 fps=457 q=-0.0 size=N/A time=00:17:43.14 bitrate=N/A speed=19.1x    frame=25734 fps=457 q=-0.0 size=N/A time=00:17:53.32 bitrate=N/A speed=19.1x    frame=25953 fps=457 q=-0.0 size=N/A time=00:18:02.45 bitrate=N/A speed=19.1x    frame=26167 fps=457 q=-0.0 size=N/A time=00:18:11.38 bitrate=N/A speed=19.1x    frame=26393 fps=457 q=-0.0 size=N/A time=00:18:20.80 bitrate=N/A speed=  19x    frame=26646 fps=457 q=-0.0 size=N/A time=00:18:31.36 bitrate=N/A speed=19.1x    frame=26898 fps=457 q=-0.0 size=N/A time=00:18:41.87 bitrate=N/A speed=19.1x    frame=27140 fps=457 q=-0.0 size=N/A time=00:18:51.96 bitrate=N/A speed=19.1x    frame=27397 fps=458 q=-0.0 size=N/A time=00:19:02.68 bitrate=N/A speed=19.1x    frame=27663 fps=458 q=-0.0 size=N/A time=00:19:13.77 bitrate=N/A speed=19.1x    frame=27933 fps=459 q=-0.0 size=N/A time=00:19:25.03 bitrate=N/A speed=19.1x    frame=28201 fps=459 q=-0.0 size=N/A time=00:19:36.21 bitrate=N/A speed=19.1x    frame=28381 fps=458 q=-0.0 size=N/A time=00:19:43.72 bitrate=N/A speed=19.1x    frame=28599 fps=458 q=-0.0 size=N/A time=00:19:52.81 bitrate=N/A speed=19.1x    frame=28844 fps=458 q=-0.0 size=N/A time=00:20:03.03 bitrate=N/A speed=19.1x    frame=29101 fps=458 q=-0.0 size=N/A time=00:20:13.75 bitrate=N/A speed=19.1x    frame=29359 fps=459 q=-0.0 size=N/A time=00:20:24.51 bitrate=N/A speed=19.1x    frame=29610 fps=459 q=-0.0 size=N/A time=00:20:34.98 bitrate=N/A speed=19.1x    frame=29845 fps=459 q=-0.0 size=N/A time=00:20:44.78 bitrate=N/A speed=19.1x    frame=30093 fps=459 q=-0.0 size=N/A time=00:20:55.12 bitrate=N/A speed=19.2x    frame=30348 fps=459 q=-0.0 size=N/A time=00:21:05.76 bitrate=N/A speed=19.2x    frame=30589 fps=459 q=-0.0 size=N/A time=00:21:15.81 bitrate=N/A speed=19.2x    frame=30839 fps=460 q=-0.0 size=N/A time=00:21:26.24 bitrate=N/A speed=19.2x    frame=31112 fps=460 q=-0.0 size=N/A time=00:21:37.62 bitrate=N/A speed=19.2x    frame=31354 fps=460 q=-0.0 size=N/A time=00:21:47.72 bitrate=N/A speed=19.2x    frame=31584 fps=460 q=-0.0 size=N/A time=00:21:57.31 bitrate=N/A speed=19.2x    frame=31841 fps=460 q=-0.0 size=N/A time=00:22:08.03 bitrate=N/A speed=19.2x    frame=32109 fps=461 q=-0.0 size=N/A time=00:22:19.21 bitrate=N/A speed=19.2x    frame=32372 fps=461 q=-0.0 size=N/A time=00:22:30.18 bitrate=N/A speed=19.2x    frame=32636 fps=461 q=-0.0 size=N/A time=00:22:41.19 bitrate=N/A speed=19.2x    frame=32900 fps=462 q=-0.0 size=N/A time=00:22:52.20 bitrate=N/A speed=19.3x    frame=33158 fps=462 q=-0.0 size=N/A time=00:23:02.96 bitrate=N/A speed=19.3x    frame=33394 fps=462 q=-0.0 size=N/A time=00:23:12.80 bitrate=N/A speed=19.3x    frame=33613 fps=462 q=-0.0 size=N/A time=00:23:21.94 bitrate=N/A speed=19.3x    frame=33829 fps=462 q=-0.0 size=N/A time=00:23:30.95 bitrate=N/A speed=19.3x    frame=34085 fps=462 q=-0.0 size=N/A time=00:23:41.62 bitrate=N/A speed=19.3x    [Parsed_ssim_10 @ 000001ec173d3080] SSIM Y:0.993935 (22.172010) U:0.993807 (22.080652) V:0.994240 (22.395778) All:0.993965 (22.193023)
[out#0/null @ 000001ec17384c00] video:14696KiB audio:267508KiB subtitle:0KiB other streams:0KiB global headers:0KiB muxing overhead: unknown
frame=34202 fps=462 q=-0.0 Lsize=N/A time=00:23:46.50 bitrate=N/A speed=19.3x    
